<?xml version="1.0" encoding="UTF-8" standalone="no"?>
<svg
   xmlns:dc="http://purl.org/dc/elements/1.1/"
   xmlns:cc="http://creativecommons.org/ns#"
   xmlns:rdf="http://www.w3.org/1999/02/22-rdf-syntax-ns#"
   xmlns:svg="http://www.w3.org/2000/svg"
   xmlns="http://www.w3.org/2000/svg"
   xmlns:sodipodi="http://sodipodi.sourceforge.net/DTD/sodipodi-0.dtd"
   xmlns:inkscape="http://www.inkscape.org/namespaces/inkscape"
   inkscape:version="1.0 (4035a4fb49, 2020-05-01)"
   height="87.691002"
   width="88.077003"
   sodipodi:docname="borgmatic-red.svg"
   id="svg66"
   xml:space="preserve"
   enable-background="new 0 0 100 100"
   viewBox="0 0 88.077003 87.691002"
   y="0px"
   x="0px"
   version="1.1"><metadata
     id="metadata72"><rdf:RDF><cc:Work
         rdf:about=""><dc:format>image/svg+xml</dc:format><dc:type
           rdf:resource="http://purl.org/dc/dcmitype/StillImage" /><dc:title></dc:title></cc:Work></rdf:RDF></metadata><defs
     id="defs70" /><sodipodi:namedview
     inkscape:current-layer="g64"
     inkscape:window-maximized="1"
     inkscape:window-y="0"
     inkscape:window-x="0"
     inkscape:cy="45.200018"
     inkscape:cx="35.658962"
     inkscape:zoom="7.1010011"
     fit-margin-bottom="0"
     fit-margin-right="0"
     fit-margin-left="0"
     fit-margin-top="0"
     showgrid="false"
     id="namedview68"
     inkscape:window-height="1016"
     inkscape:window-width="1920"
     inkscape:pageshadow="2"
     inkscape:pageopacity="0"
     guidetolerance="10"
     gridtolerance="10"
     objecttolerance="10"
     borderopacity="1"
     bordercolor="#666666"
     pagecolor="#ffffff" /><g
     transform="translate(0,-11.923)"
     id="g64"><circle
       style="fill:#e01b24"
       id="circle60"
       r="5.6259999"
       cy="59.615002"
       cx="63.460999" /><path
       style="fill:#e01b24"
       id="path62"
       d="M 81.432,48.015 C 82.211,37.166 79.674,28.121 74.025,21.722 68.447,15.403 59.915,11.923 50,11.923 c -6.729,0 -12.834,1.645 -17.81,4.724 -0.405,-0.06 -0.823,-0.073 -1.248,0.005 C 8.128,20.817 0,34.623 0,46.154 0,52.309 1.856,57.159 5.519,60.571 7.601,62.512 9.98,63.794 12.178,64.492 13.041,74.256 18.345,81 23.077,81 h 1.438 C 30.168,94 44.847,99.614 50,99.614 c 6.708,0 24.493,-7.875 27.38,-25.392 4.758,-1.888 10.697,-7.373 10.697,-13.711 0,-5.872 -2.682,-10.656 -6.645,-12.496 z M 7.691,46.154 c 0,-3.397 1.238,-13.399 14.747,-19.083 -2.043,3.821 -3.31,8.234 -3.771,13.136 -3.06,2.521 -5.577,7.792 -6.366,15.873 -0.534,-0.316 -1.056,-0.686 -1.538,-1.135 -2.038,-1.9 -3.072,-4.857 -3.072,-8.791 z M 74.23,67.947 c -1.806,0 -3.309,1.389 -3.451,3.188 C 69.608,85.928 53.914,92.575 50,92.575 46.725,92.575 35.393,88.101 30.97,78.25 31.971,77.541 33.138,77 34.616,77 c 3.809,0 3.847,0 3.847,0 2.126,0 7.692,-4.023 7.692,-19.494 C 46.154,46.241 40.588,42 38.462,42 c 0,0 -0.195,0 -3.847,0 -3.65,0 -5.566,-4 -7.692,-4 h -1.046 c 0.813,-4 2.646,-8.756 5.473,-11.94 4.321,-4.87 10.771,-7.329 18.65,-7.329 8.016,0 14.528,2.636 18.835,7.515 4.821,5.462 6.697,13.762 5.424,23.95 -0.123,0.984 0.183,1.99 0.84,2.734 0.657,0.744 1.602,1.179 2.595,1.179 1.671,0 3.46,2.562 3.46,6.371 -10e-4,3.536 -5.4,7.332 -6.924,7.467 z M 30.432,59.615 c 0,-3.377 2.734,-6.107 6.106,-6.107 3.373,0 6.107,2.73 6.107,6.107 0,3.377 -2.734,6.107 -6.107,6.107 -3.372,0.001 -6.106,-2.73 -6.106,-6.107 z" /></g></svg>
