<?xml version="1.0" encoding="UTF-8" standalone="no"?>
<svg
   xmlns:dc="http://purl.org/dc/elements/1.1/"
   xmlns:cc="http://creativecommons.org/ns#"
   xmlns:rdf="http://www.w3.org/1999/02/22-rdf-syntax-ns#"
   xmlns:svg="http://www.w3.org/2000/svg"
   xmlns="http://www.w3.org/2000/svg"
   xmlns:sodipodi="http://sodipodi.sourceforge.net/DTD/sodipodi-0.dtd"
   xmlns:inkscape="http://www.inkscape.org/namespaces/inkscape"
   sodipodi:docname="info.svg"
   inkscape:version="1.0 (4035a4fb49, 2020-05-01)"
   id="svg8"
   version="1.1"
   viewBox="0 0 23.547279 49.977375"
   height="49.977375mm"
   width="23.547279mm">
  <defs
     id="defs2" />
  <sodipodi:namedview
     fit-margin-bottom="0"
     fit-margin-right="0"
     fit-margin-left="0"
     fit-margin-top="0"
     inkscape:window-maximized="1"
     inkscape:window-y="0"
     inkscape:window-x="0"
     inkscape:window-height="1016"
     inkscape:window-width="1920"
     showgrid="false"
     inkscape:document-rotation="0"
     inkscape:current-layer="layer1"
     inkscape:document-units="mm"
     inkscape:cy="76.405426"
     inkscape:cx="41.363659"
     inkscape:zoom="1.9004944"
     inkscape:pageshadow="2"
     inkscape:pageopacity="0.0"
     borderopacity="1.0"
     bordercolor="#666666"
     pagecolor="#ffffff"
     id="base" />
  <metadata
     id="metadata5">
    <rdf:RDF>
      <cc:Work
         rdf:about="">
        <dc:format>image/svg+xml</dc:format>
        <dc:type
           rdf:resource="http://purl.org/dc/dcmitype/StillImage" />
        <dc:title></dc:title>
      </cc:Work>
    </rdf:RDF>
  </metadata>
  <g
     transform="translate(-114.34443,-51.440138)"
     id="layer1"
     inkscape:groupmode="layer"
     inkscape:label="Layer 1">
    <g
       transform="translate(0,2.9407138)"
       id="g475">
      <rect
         style="fill:#000000;stroke-width:0.187088"
         id="rect372"
         width="23.547272"
         height="4.4772987"
         x="114.34444"
         y="48.499424" />
      <rect
         y="52.976723"
         x="114.34444"
         height="4.4772987"
         width="23.547272"
         id="rect374"
         style="fill:#4861bd;fill-opacity:1;stroke-width:0.187088" />
      <g
         id="g64"
         transform="matrix(0.03940459,0,0,0.03940459,124.38275,48.540538)">
        <circle
           cx="63.460999"
           cy="59.615002"
           r="5.6259999"
           id="circle60"
           style="fill:#ffffff" />
        <path
           d="M 81.432,48.015 C 82.211,37.166 79.674,28.121 74.025,21.722 68.447,15.403 59.915,11.923 50,11.923 c -6.729,0 -12.834,1.645 -17.81,4.724 -0.405,-0.06 -0.823,-0.073 -1.248,0.005 C 8.128,20.817 0,34.623 0,46.154 0,52.309 1.856,57.159 5.519,60.571 7.601,62.512 9.98,63.794 12.178,64.492 13.041,74.256 18.345,81 23.077,81 h 1.438 C 30.168,94 44.847,99.614 50,99.614 c 6.708,0 24.493,-7.875 27.38,-25.392 4.758,-1.888 10.697,-7.373 10.697,-13.711 0,-5.872 -2.682,-10.656 -6.645,-12.496 z M 7.691,46.154 c 0,-3.397 1.238,-13.399 14.747,-19.083 -2.043,3.821 -3.31,8.234 -3.771,13.136 -3.06,2.521 -5.577,7.792 -6.366,15.873 -0.534,-0.316 -1.056,-0.686 -1.538,-1.135 -2.038,-1.9 -3.072,-4.857 -3.072,-8.791 z M 74.23,67.947 c -1.806,0 -3.309,1.389 -3.451,3.188 C 69.608,85.928 53.914,92.575 50,92.575 46.725,92.575 35.393,88.101 30.97,78.25 31.971,77.541 33.138,77 34.616,77 c 3.809,0 3.847,0 3.847,0 2.126,0 7.692,-4.023 7.692,-19.494 C 46.154,46.241 40.588,42 38.462,42 c 0,0 -0.195,0 -3.847,0 -3.65,0 -5.566,-4 -7.692,-4 h -1.046 c 0.813,-4 2.646,-8.756 5.473,-11.94 4.321,-4.87 10.771,-7.329 18.65,-7.329 8.016,0 14.528,2.636 18.835,7.515 4.821,5.462 6.697,13.762 5.424,23.95 -0.123,0.984 0.183,1.99 0.84,2.734 0.657,0.744 1.602,1.179 2.595,1.179 1.671,0 3.46,2.562 3.46,6.371 -10e-4,3.536 -5.4,7.332 -6.924,7.467 z M 30.432,59.615 c 0,-3.377 2.734,-6.107 6.106,-6.107 3.373,0 6.107,2.73 6.107,6.107 0,3.377 -2.734,6.107 -6.107,6.107 -3.372,0.001 -6.106,-2.73 -6.106,-6.107 z"
           id="path62"
           style="fill:#ffffff" />
      </g>
      <text
         xml:space="preserve"
         style="font-style:normal;font-weight:normal;font-size:4.72641px;line-height:1.25;font-family:sans-serif;letter-spacing:0px;word-spacing:0px;fill:#000000;fill-opacity:1;stroke:none;stroke-width:0.118161"
         x="120.8434"
         y="56.938148"
         id="text334"><tspan
           sodipodi:role="line"
           id="tspan332"
           x="120.8434"
           y="56.938148"
           style="font-style:normal;font-variant:normal;font-weight:normal;font-stretch:normal;font-family:Cantarell;-inkscape-font-specification:Cantarell;fill:#ffffff;stroke-width:0.118161">done</tspan></text>
    </g>
    <g
       transform="translate(0,1.3010972)"
       id="g466">
      <rect
         y="60.394737"
         x="114.34444"
         height="4.4772987"
         width="23.547272"
         id="rect376"
         style="fill:#000000;stroke-width:0.187088" />
      <rect
         style="fill:#4861bd;fill-opacity:1;stroke-width:0.187088"
         id="rect378"
         width="23.547272"
         height="4.4772987"
         x="114.34444"
         y="64.872032" />
      <g
         transform="matrix(0.03940459,0,0,0.03940459,124.38275,60.43585)"
         id="g384"
         style="fill:#2ec27e">
        <circle
           style="fill:#2ec27e"
           id="circle380"
           r="5.6259999"
           cy="59.615002"
           cx="63.460999" />
        <path
           style="fill:#2ec27e"
           id="path382"
           d="M 81.432,48.015 C 82.211,37.166 79.674,28.121 74.025,21.722 68.447,15.403 59.915,11.923 50,11.923 c -6.729,0 -12.834,1.645 -17.81,4.724 -0.405,-0.06 -0.823,-0.073 -1.248,0.005 C 8.128,20.817 0,34.623 0,46.154 0,52.309 1.856,57.159 5.519,60.571 7.601,62.512 9.98,63.794 12.178,64.492 13.041,74.256 18.345,81 23.077,81 h 1.438 C 30.168,94 44.847,99.614 50,99.614 c 6.708,0 24.493,-7.875 27.38,-25.392 4.758,-1.888 10.697,-7.373 10.697,-13.711 0,-5.872 -2.682,-10.656 -6.645,-12.496 z M 7.691,46.154 c 0,-3.397 1.238,-13.399 14.747,-19.083 -2.043,3.821 -3.31,8.234 -3.771,13.136 -3.06,2.521 -5.577,7.792 -6.366,15.873 -0.534,-0.316 -1.056,-0.686 -1.538,-1.135 -2.038,-1.9 -3.072,-4.857 -3.072,-8.791 z M 74.23,67.947 c -1.806,0 -3.309,1.389 -3.451,3.188 C 69.608,85.928 53.914,92.575 50,92.575 46.725,92.575 35.393,88.101 30.97,78.25 31.971,77.541 33.138,77 34.616,77 c 3.809,0 3.847,0 3.847,0 2.126,0 7.692,-4.023 7.692,-19.494 C 46.154,46.241 40.588,42 38.462,42 c 0,0 -0.195,0 -3.847,0 -3.65,0 -5.566,-4 -7.692,-4 h -1.046 c 0.813,-4 2.646,-8.756 5.473,-11.94 4.321,-4.87 10.771,-7.329 18.65,-7.329 8.016,0 14.528,2.636 18.835,7.515 4.821,5.462 6.697,13.762 5.424,23.95 -0.123,0.984 0.183,1.99 0.84,2.734 0.657,0.744 1.602,1.179 2.595,1.179 1.671,0 3.46,2.562 3.46,6.371 -10e-4,3.536 -5.4,7.332 -6.924,7.467 z M 30.432,59.615 c 0,-3.377 2.734,-6.107 6.106,-6.107 3.373,0 6.107,2.73 6.107,6.107 0,3.377 -2.734,6.107 -6.107,6.107 -3.372,0.001 -6.106,-2.73 -6.106,-6.107 z" />
      </g>
      <text
         id="text388"
         y="68.249748"
         x="117.9603"
         style="font-style:normal;font-weight:normal;font-size:4.72641px;line-height:1.25;font-family:sans-serif;letter-spacing:0px;word-spacing:0px;fill:#2ec27e;fill-opacity:1;stroke:none;stroke-width:0.118161"
         xml:space="preserve"><tspan
           style="font-style:normal;font-variant:normal;font-weight:normal;font-stretch:normal;font-family:Cantarell;-inkscape-font-specification:Cantarell;fill:#2ec27e;stroke-width:0.118161"
           y="68.249748"
           x="117.9603"
           id="tspan386"
           sodipodi:role="line">running</tspan></text>
    </g>
    <g
       transform="translate(0,0.75153777)"
       id="g457">
      <rect
         style="fill:#000000;stroke-width:0.187088"
         id="rect390"
         width="23.547272"
         height="4.4772987"
         x="114.34444"
         y="71.199989" />
      <rect
         y="75.677284"
         x="114.34444"
         height="4.4772987"
         width="23.547272"
         id="rect392"
         style="fill:#4861bd;fill-opacity:1;stroke-width:0.187088" />
      <g
         style="fill:#f5c211"
         id="g398"
         transform="matrix(0.03940459,0,0,0.03940459,124.38275,71.2411)">
        <circle
           cx="63.460999"
           cy="59.615002"
           r="5.6259999"
           id="circle394"
           style="fill:#f5c211" />
        <path
           d="M 81.432,48.015 C 82.211,37.166 79.674,28.121 74.025,21.722 68.447,15.403 59.915,11.923 50,11.923 c -6.729,0 -12.834,1.645 -17.81,4.724 -0.405,-0.06 -0.823,-0.073 -1.248,0.005 C 8.128,20.817 0,34.623 0,46.154 0,52.309 1.856,57.159 5.519,60.571 7.601,62.512 9.98,63.794 12.178,64.492 13.041,74.256 18.345,81 23.077,81 h 1.438 C 30.168,94 44.847,99.614 50,99.614 c 6.708,0 24.493,-7.875 27.38,-25.392 4.758,-1.888 10.697,-7.373 10.697,-13.711 0,-5.872 -2.682,-10.656 -6.645,-12.496 z M 7.691,46.154 c 0,-3.397 1.238,-13.399 14.747,-19.083 -2.043,3.821 -3.31,8.234 -3.771,13.136 -3.06,2.521 -5.577,7.792 -6.366,15.873 -0.534,-0.316 -1.056,-0.686 -1.538,-1.135 -2.038,-1.9 -3.072,-4.857 -3.072,-8.791 z M 74.23,67.947 c -1.806,0 -3.309,1.389 -3.451,3.188 C 69.608,85.928 53.914,92.575 50,92.575 46.725,92.575 35.393,88.101 30.97,78.25 31.971,77.541 33.138,77 34.616,77 c 3.809,0 3.847,0 3.847,0 2.126,0 7.692,-4.023 7.692,-19.494 C 46.154,46.241 40.588,42 38.462,42 c 0,0 -0.195,0 -3.847,0 -3.65,0 -5.566,-4 -7.692,-4 h -1.046 c 0.813,-4 2.646,-8.756 5.473,-11.94 4.321,-4.87 10.771,-7.329 18.65,-7.329 8.016,0 14.528,2.636 18.835,7.515 4.821,5.462 6.697,13.762 5.424,23.95 -0.123,0.984 0.183,1.99 0.84,2.734 0.657,0.744 1.602,1.179 2.595,1.179 1.671,0 3.46,2.562 3.46,6.371 -10e-4,3.536 -5.4,7.332 -6.924,7.467 z M 30.432,59.615 c 0,-3.377 2.734,-6.107 6.106,-6.107 3.373,0 6.107,2.73 6.107,6.107 0,3.377 -2.734,6.107 -6.107,6.107 -3.372,0.001 -6.106,-2.73 -6.106,-6.107 z"
           id="path396"
           style="fill:#f5c211" />
      </g>
      <text
         xml:space="preserve"
         style="font-style:normal;font-weight:normal;font-size:4.72641px;line-height:1.25;font-family:sans-serif;letter-spacing:0px;word-spacing:0px;fill:#2ec27e;fill-opacity:1;stroke:none;stroke-width:0.118161"
         x="117.16862"
         y="79.662338"
         id="text402"><tspan
           sodipodi:role="line"
           id="tspan400"
           x="117.16862"
           y="79.662338"
           style="font-style:normal;font-variant:normal;font-weight:normal;font-stretch:normal;font-family:Cantarell;-inkscape-font-specification:Cantarell;fill:#f5c211;stroke-width:0.118161">deferred</tspan></text>
    </g>
    <g
       transform="translate(-1.2842712,-0.39333928)"
       id="g448">
      <rect
         y="82.600563"
         x="115.62871"
         height="4.4772987"
         width="23.547272"
         id="rect404"
         style="fill:#000000;stroke-width:0.187088" />
      <rect
         style="fill:#4861bd;fill-opacity:1;stroke-width:0.187088"
         id="rect406"
         width="23.547272"
         height="4.4772987"
         x="115.62871"
         y="87.077858" />
      <g
         transform="matrix(0.03940459,0,0,0.03940459,125.66702,82.641676)"
         id="g412"
         style="fill:#e01b24">
        <circle
           style="fill:#e01b24"
           id="circle408"
           r="5.6259999"
           cy="59.615002"
           cx="63.460999" />
        <path
           style="fill:#e01b24"
           id="path410"
           d="M 81.432,48.015 C 82.211,37.166 79.674,28.121 74.025,21.722 68.447,15.403 59.915,11.923 50,11.923 c -6.729,0 -12.834,1.645 -17.81,4.724 -0.405,-0.06 -0.823,-0.073 -1.248,0.005 C 8.128,20.817 0,34.623 0,46.154 0,52.309 1.856,57.159 5.519,60.571 7.601,62.512 9.98,63.794 12.178,64.492 13.041,74.256 18.345,81 23.077,81 h 1.438 C 30.168,94 44.847,99.614 50,99.614 c 6.708,0 24.493,-7.875 27.38,-25.392 4.758,-1.888 10.697,-7.373 10.697,-13.711 0,-5.872 -2.682,-10.656 -6.645,-12.496 z M 7.691,46.154 c 0,-3.397 1.238,-13.399 14.747,-19.083 -2.043,3.821 -3.31,8.234 -3.771,13.136 -3.06,2.521 -5.577,7.792 -6.366,15.873 -0.534,-0.316 -1.056,-0.686 -1.538,-1.135 -2.038,-1.9 -3.072,-4.857 -3.072,-8.791 z M 74.23,67.947 c -1.806,0 -3.309,1.389 -3.451,3.188 C 69.608,85.928 53.914,92.575 50,92.575 46.725,92.575 35.393,88.101 30.97,78.25 31.971,77.541 33.138,77 34.616,77 c 3.809,0 3.847,0 3.847,0 2.126,0 7.692,-4.023 7.692,-19.494 C 46.154,46.241 40.588,42 38.462,42 c 0,0 -0.195,0 -3.847,0 -3.65,0 -5.566,-4 -7.692,-4 h -1.046 c 0.813,-4 2.646,-8.756 5.473,-11.94 4.321,-4.87 10.771,-7.329 18.65,-7.329 8.016,0 14.528,2.636 18.835,7.515 4.821,5.462 6.697,13.762 5.424,23.95 -0.123,0.984 0.183,1.99 0.84,2.734 0.657,0.744 1.602,1.179 2.595,1.179 1.671,0 3.46,2.562 3.46,6.371 -10e-4,3.536 -5.4,7.332 -6.924,7.467 z M 30.432,59.615 c 0,-3.377 2.734,-6.107 6.106,-6.107 3.373,0 6.107,2.73 6.107,6.107 0,3.377 -2.734,6.107 -6.107,6.107 -3.372,0.001 -6.106,-2.73 -6.106,-6.107 z" />
      </g>
      <text
         id="text416"
         y="90.455574"
         x="122.03551"
         style="font-style:normal;font-weight:normal;font-size:4.72641px;line-height:1.25;font-family:sans-serif;letter-spacing:0px;word-spacing:0px;fill:#e01b24;fill-opacity:1;stroke:none;stroke-width:0.118161"
         xml:space="preserve"><tspan
           style="font-style:normal;font-variant:normal;font-weight:normal;font-stretch:normal;font-family:Cantarell;-inkscape-font-specification:Cantarell;fill:#e01b24;stroke-width:0.118161"
           y="90.455574"
           x="122.03551"
           id="tspan414"
           sodipodi:role="line">error</tspan></text>
    </g>
    <g
       transform="translate(-0.8062286,-1.0140998)"
       id="g439">
      <rect
         style="fill:#000000;stroke-width:0.187088"
         id="rect418"
         width="23.547272"
         height="4.4772987"
         x="115.15066"
         y="93.47702" />
      <rect
         y="97.954315"
         x="115.15066"
         height="4.4772987"
         width="23.547272"
         id="rect420"
         style="fill:#4861bd;fill-opacity:1;stroke-width:0.187088" />
      <g
         style="fill:#8ff0a4"
         id="g426"
         transform="matrix(0.03940459,0,0,0.03940459,125.18897,93.518136)">
        <circle
           cx="63.460999"
           cy="59.615002"
           r="5.6259999"
           id="circle422"
           style="fill:#8ff0a4" />
        <path
           d="M 81.432,48.015 C 82.211,37.166 79.674,28.121 74.025,21.722 68.447,15.403 59.915,11.923 50,11.923 c -6.729,0 -12.834,1.645 -17.81,4.724 -0.405,-0.06 -0.823,-0.073 -1.248,0.005 C 8.128,20.817 0,34.623 0,46.154 0,52.309 1.856,57.159 5.519,60.571 7.601,62.512 9.98,63.794 12.178,64.492 13.041,74.256 18.345,81 23.077,81 h 1.438 C 30.168,94 44.847,99.614 50,99.614 c 6.708,0 24.493,-7.875 27.38,-25.392 4.758,-1.888 10.697,-7.373 10.697,-13.711 0,-5.872 -2.682,-10.656 -6.645,-12.496 z M 7.691,46.154 c 0,-3.397 1.238,-13.399 14.747,-19.083 -2.043,3.821 -3.31,8.234 -3.771,13.136 -3.06,2.521 -5.577,7.792 -6.366,15.873 -0.534,-0.316 -1.056,-0.686 -1.538,-1.135 -2.038,-1.9 -3.072,-4.857 -3.072,-8.791 z M 74.23,67.947 c -1.806,0 -3.309,1.389 -3.451,3.188 C 69.608,85.928 53.914,92.575 50,92.575 46.725,92.575 35.393,88.101 30.97,78.25 31.971,77.541 33.138,77 34.616,77 c 3.809,0 3.847,0 3.847,0 2.126,0 7.692,-4.023 7.692,-19.494 C 46.154,46.241 40.588,42 38.462,42 c 0,0 -0.195,0 -3.847,0 -3.65,0 -5.566,-4 -7.692,-4 h -1.046 c 0.813,-4 2.646,-8.756 5.473,-11.94 4.321,-4.87 10.771,-7.329 18.65,-7.329 8.016,0 14.528,2.636 18.835,7.515 4.821,5.462 6.697,13.762 5.424,23.95 -0.123,0.984 0.183,1.99 0.84,2.734 0.657,0.744 1.602,1.179 2.595,1.179 1.671,0 3.46,2.562 3.46,6.371 -10e-4,3.536 -5.4,7.332 -6.924,7.467 z M 30.432,59.615 c 0,-3.377 2.734,-6.107 6.106,-6.107 3.373,0 6.107,2.73 6.107,6.107 0,3.377 -2.734,6.107 -6.107,6.107 -3.372,0.001 -6.106,-2.73 -6.106,-6.107 z"
           id="path424"
           style="fill:#8ff0a4" />
      </g>
      <text
         xml:space="preserve"
         style="font-style:normal;font-weight:normal;font-size:4.72641px;line-height:1.25;font-family:sans-serif;letter-spacing:0px;word-spacing:0px;fill:#8ff0a4;fill-opacity:1;stroke:none;stroke-width:0.118161"
         x="118.83979"
         y="101.33203"
         id="text430"><tspan
           sodipodi:role="line"
           id="tspan428"
           x="118.83979"
           y="101.33203"
           style="font-style:normal;font-variant:normal;font-weight:normal;font-stretch:normal;font-family:Cantarell;-inkscape-font-specification:Cantarell;fill:#8ff0a4;stroke-width:0.118161">starting</tspan></text>
    </g>
  </g>
</svg>
